<svg width="244" height="52" viewBox="0 0 244 52" fill="none" xmlns="http://www.w3.org/2000/svg">
  <rect x="2" y="2" width="48" height="48" rx="16" fill="#FF6600"/>
  <path d="M12 26C12 18.268 18.268 12 26 12H34.5" stroke="#171310" stroke-width="5" stroke-linecap="round"/>
  <path d="M40 26C40 33.732 33.732 40 26 40H17.5" stroke="white" stroke-width="5" stroke-linecap="round"/>
  <path d="M22.5 18.5L17 22V30L22.5 33.5L28 30V22L22.5 18.5Z" fill="white"/>
  <path d="M28 22L33.5 18.5L39 22V30L33.5 33.5L28 30" fill="#171310"/>
  <path d="M28 22L33.5 25.5V33.5" stroke="#171310" stroke-width="2.25" stroke-linejoin="round"/>
  <path d="M22.5 18.5L28 22L33.5 18.5" stroke="#FFE7D6" stroke-width="2.25" stroke-linejoin="round"/>
  <path d="M69.296 18.32C69.296 13.392 73.328 10 80.656 10C84.208 10 87.856 10.768 90.736 12.336L88.624 17.008C86.224 15.632 83.056 14.864 80.464 14.864C76.816 14.864 75.248 15.856 75.248 17.552C75.248 22.896 91.12 19.216 91.12 31.12C91.12 35.888 87.152 39.28 79.856 39.28C75.44 39.28 71.024 38 68.176 36.08L70.48 31.472C73.2 33.2 76.784 34.352 79.952 34.352C83.696 34.352 85.232 33.104 85.232 31.504C85.232 26.224 69.296 29.872 69.296 18.32Z" fill="#171310"/>
  <path d="M113.34 25.264C113.34 33.648 107.228 39.28 99.708 39.28C92.188 39.28 86.076 33.648 86.076 25.264C86.076 16.88 92.188 11.248 99.708 11.248C107.228 11.248 113.34 16.88 113.34 25.264ZM92.092 25.264C92.092 30.864 95.804 34.096 99.708 34.096C103.612 34.096 107.324 30.864 107.324 25.264C107.324 19.664 103.612 16.432 99.708 16.432C95.804 16.432 92.092 19.664 92.092 25.264Z" fill="#171310"/>
  <path d="M117.355 0.399994H123.179V38.8H117.355V0.399994Z" fill="#171310"/>
  <path d="M146.537 11.728V38.8H141.009V35.344C138.961 37.84 136.049 39.088 132.977 39.088C126.001 39.088 121.265 35.248 121.265 27.12V11.728H127.089V26.32C127.089 31.248 129.393 33.584 133.393 33.584C137.777 33.584 140.713 30.864 140.713 25.36V11.728H146.537Z" fill="#171310"/>
  <path d="M169.955 37.328C168.419 38.552 166.147 39.088 163.907 39.088C157.987 39.088 154.563 35.952 154.563 29.968V16.56H149.987V11.888H154.563V5.67999H160.387V11.888H167.811V16.56H160.387V29.84C160.387 32.56 161.731 34.032 164.259 34.032C165.635 34.032 166.947 33.648 167.939 32.88L169.955 37.328Z" fill="#171310"/>
  <path d="M171.563 3.47199C171.563 1.61599 173.067 0.143997 175.275 0.143997C177.483 0.143997 178.987 1.55199 178.987 3.37599C178.987 5.32799 177.547 6.83199 175.275 6.83199C173.067 6.83199 171.563 5.35999 171.563 3.47199ZM172.363 11.728H178.187V38.8H172.363V11.728Z" fill="#171310"/>
  <path d="M202.43 25.264C202.43 33.648 196.318 39.28 188.798 39.28C181.278 39.28 175.166 33.648 175.166 25.264C175.166 16.88 181.278 11.248 188.798 11.248C196.318 11.248 202.43 16.88 202.43 25.264ZM181.182 25.264C181.182 30.864 184.894 34.096 188.798 34.096C192.702 34.096 196.414 30.864 196.414 25.264C196.414 19.664 192.702 16.432 188.798 16.432C184.894 16.432 181.182 19.664 181.182 25.264Z" fill="#171310"/>
  <path d="M224.856 23.28V38.8H219.032V24.032C219.032 19.2 216.632 16.88 212.536 16.88C208.024 16.88 204.984 19.6 204.984 25.36V38.8H199.16V11.728H204.688V15.216C206.768 12.72 209.936 11.248 213.744 11.248C220.272 11.248 224.856 14.992 224.856 23.28Z" fill="#171310"/>
</svg>
