<svg xmlns="http://www.w3.org/2000/svg" xmlns:xlink="http://www.w3.org/1999/xlink" version="1.1" x="0px" y="0px" viewBox="0 0 100 125" enable-background="new 0 0 100 100" xml:space="preserve"><g><path d="M92.244,53.198c0.003-0.715-0.375-1.376-0.992-1.736l-3.07-1.791l3.054-1.745c0.621-0.354,1.004-1.013,1.008-1.728   c0.003-0.715-0.375-1.376-0.992-1.736L39.836,14.47c-0.617-0.359-1.379-0.362-2-0.009L8.764,31.073   c-0.621,0.354-1.004,1.013-1.008,1.728c-0.003,0.715,0.375,1.376,0.992,1.736l3.07,1.791l-3.054,1.745   c-0.621,0.354-1.004,1.013-1.008,1.728s0.375,1.376,0.992,1.736l3.07,1.791l-3.054,1.745c-0.621,0.354-1.004,1.013-1.008,1.728   s0.375,1.376,0.992,1.736l3.07,1.791l-3.054,1.745c-0.621,0.354-1.004,1.013-1.008,1.728s0.375,1.376,0.992,1.736L60.164,85.53   c0.312,0.182,0.66,0.272,1.008,0.272c0.342,0,0.685-0.088,0.992-0.264l29.072-16.613c0.621-0.354,1.004-1.013,1.008-1.728   c0.003-0.715-0.375-1.376-0.992-1.736l-3.07-1.791l3.054-1.745c0.621-0.354,1.004-1.013,1.008-1.728   c0.003-0.715-0.375-1.376-0.992-1.736l-3.07-1.791l3.054-1.745C91.857,54.571,92.241,53.913,92.244,53.198z M38.818,18.507   l47.426,27.665L61.182,60.493L13.756,32.827L38.818,18.507z M60.164,64.53c0.312,0.182,0.66,0.272,1.008,0.272   c0.342,0,0.685-0.088,0.992-0.264l22.008-12.576l2.072,1.209L61.182,67.493L13.756,39.827l2.051-1.172L60.164,64.53z    M86.244,67.172L61.182,81.493L13.756,53.827l2.051-1.172L60.164,78.53c0.312,0.182,0.66,0.272,1.008,0.272   c0.342,0,0.685-0.088,0.992-0.264l22.008-12.576L86.244,67.172z M86.244,60.172L61.182,74.493L13.756,46.827l2.051-1.172   L60.164,71.53c0.312,0.182,0.66,0.272,1.008,0.272c0.342,0,0.685-0.088,0.992-0.264l22.008-12.576L86.244,60.172z"/><path d="M60.089,37.043l0.28-0.16c0.959-0.548,1.292-1.771,0.744-2.729c-0.548-0.96-1.77-1.29-2.729-0.744l-1.532,0.876   c-0.506-0.217-1.066-0.407-1.701-0.556c-2.803-0.656-5.93,0.392-7.117,2.386c-0.802,1.348-0.612,2.96,0.496,4.209   c0.207,0.232,0.436,0.473,0.67,0.717c0.266,0.277,0.653,0.683,0.908,1.005c-1.489,0.767-3.209,0.267-4.024-0.174   c-0.973-0.526-1.387-1.432-1.38-1.681c0.109-1.1-0.694-2.079-1.793-2.188c-1.103-0.112-2.079,0.693-2.188,1.793   c-0.104,1.053,0.235,2.185,0.885,3.199l-0.233,0.134c-0.959,0.548-1.293,1.769-0.745,2.729c0.369,0.646,1.044,1.008,1.739,1.008   c0.336,0,0.677-0.085,0.99-0.264l1.541-0.88c0.999,0.42,2.207,0.718,3.495,0.717c1.343,0,2.76-0.317,4.076-1.138   c1.354-0.845,1.748-1.895,1.839-2.626c0.231-1.843-1.128-3.262-2.22-4.402c-0.106-0.11-0.211-0.22-0.319-0.336   c0.503-0.276,1.493-0.541,2.471-0.313c2.314,0.541,2.474,1.629,2.484,1.752c-0.005-0.062-0.001-0.095-0.001-0.095l3.999,0.105   C60.739,38.754,60.569,37.904,60.089,37.043z"/></g></svg>