<svg xmlns="http://www.w3.org/2000/svg" xmlns:xlink="http://www.w3.org/1999/xlink" version="1.1" x="0px" y="0px" viewBox="0 0 64 80" enable-background="new 0 0 64 64" xml:space="preserve"><g><path d="M44,43c-2.757,0-5,2.243-5,5s2.243,5,5,5s5-2.243,5-5S46.757,43,44,43z M44,51c-1.654,0-3-1.346-3-3s1.346-3,3-3   s3,1.346,3,3S45.654,51,44,51z"/><path d="M16.044,43c-1.377,0.008-2.597,0.498-3.548,1.433c-0.953,0.936-1.484,2.187-1.496,3.522   c-0.024,2.756,2.199,5.02,4.956,5.044c0.015,0,0.03,0,0.045,0c1.319,0,2.562-0.508,3.503-1.433   c0.953-0.936,1.484-2.187,1.496-3.522C21.024,45.288,18.801,43.025,16.044,43z M18.103,50.14C17.537,50.695,16.792,51,16.001,51   c-0.009,0-0.018,0-0.027,0c-1.654-0.015-2.988-1.373-2.974-3.027c0.007-0.801,0.326-1.552,0.897-2.113   c0.565-0.555,1.311-0.86,2.102-0.86c0.009,0,0.018,0,0.027,0c1.654,0.015,2.988,1.373,2.974,3.027   C18.993,48.828,18.674,49.579,18.103,50.14z"/><path d="M62,21c0-5.514-4.486-10-10-10c-3.641,0-6.898,1.936-8.625,5H25.81C24.261,16,23,17.261,23,18.81V35h-2V22   c0-0.811-0.316-1.566-0.873-2.108C19.566,19.317,18.812,19,18,19c-1.654,0-3,1.346-3,3v1h-2C6.935,23,2,27.935,2,34v2v10   c0,1.654,1.346,3,3,3h3c0.549,0,0.995-0.512,1-1.061c0.035-3.825,3.173-6.937,6.996-6.939c1.231,0.009,2.441,0.339,3.503,0.955   C21.658,43.206,23,45.522,23,48c0,0.552,0.447,1,1,1h12c0.553,0,1-0.448,1-1c0-3.86,3.141-7,7-7s7,3.14,7,7c0,0.552,0.447,1,1,1h4   c1.654,0,3-1.346,3-3v-8c0-1.302-0.839-2.402-2-2.816V29.63C60.09,27.844,62,24.605,62,21z M15,39.056   C10.87,39.519,7.557,42.812,7.063,47H5c-0.552,0-1-0.449-1-1v-9h1.39c0.605,0,1.185-0.178,1.663-0.507l5.013-3.329   C12.221,33.059,12.414,33,12.61,33H15V39.056z M15,31h-2.39c-0.605,0-1.185,0.178-1.663,0.507l-5.013,3.329   C5.779,34.941,5.586,35,5.39,35H4v-1c0-4.962,4.037-9,9-9h2V31z M25,18.81c0-0.447,0.363-0.81,0.81-0.81h16.65   c-0.021,0.067-0.031,0.136-0.051,0.203c-0.075,0.255-0.139,0.514-0.193,0.775c-0.023,0.111-0.049,0.221-0.068,0.334   c-0.064,0.369-0.113,0.742-0.136,1.121C42.001,20.622,42,20.811,42,21c0,0.15,0.001,0.3,0.01,0.35l0.002,0.229   C42.324,26.862,46.712,31,52,31c0.342,0,0.684-0.024,1.024-0.06c0.084-0.009,0.168-0.018,0.252-0.029   c0.336-0.044,0.671-0.098,1.001-0.175c0.02-0.005,0.039-0.011,0.058-0.016c0.224-0.054,0.446-0.113,0.665-0.181V35H25V18.81z    M57,46c0,0.551-0.448,1-1,1h-3.056c-0.499-4.494-4.319-8-8.944-8s-8.445,3.506-8.944,8H24.943   c-0.318-2.802-1.96-5.338-4.441-6.775c-1.074-0.624-2.27-1.02-3.502-1.164V32v-8v-2c0-0.551,0.448-1,1-1   c0.267,0,0.514,0.102,0.713,0.306C18.897,21.487,19,21.733,19,22v14c0,0.552,0.447,1,1,1h4h32c0.552,0,1,0.449,1,1V46z    M55.553,28.166C54.461,28.711,53.232,29,52,29c-4.231,0-7.741-3.312-7.99-7.48l-0.004-0.258C43.999,21.179,44,21.09,44,21   c0-0.151-0.001-0.302,0.008-0.451c0.061-1.019,0.322-2.039,0.751-2.941l0.089-0.167C46.194,14.702,48.935,13,52,13   c4.411,0,8,3.589,8,8C60,24.058,58.297,26.803,55.553,28.166z"/><path d="M51,19.5c0,0.276,0.225,0.5,0.5,0.5h1c1.379,0,2.5,1.122,2.5,2.5c0,1.207-0.86,2.217-2,2.449V26c0,0.552-0.447,1-1,1   s-1-0.448-1-1v-1h-1c-0.553,0-1-0.448-1-1s0.447-1,1-1h2.5c0.275,0,0.5-0.224,0.5-0.5S52.775,22,52.5,22h-1   c-1.379,0-2.5-1.122-2.5-2.5c0-1.207,0.86-2.217,2-2.449V16c0-0.552,0.447-1,1-1s1,0.448,1,1v1h1c0.553,0,1,0.448,1,1s-0.447,1-1,1   h-2.5C51.225,19,51,19.224,51,19.5z"/></g></svg>