<svg xmlns="http://www.w3.org/2000/svg" xmlns:xlink="http://www.w3.org/1999/xlink" version="1.1" x="0px" y="0px" viewBox="0 0 24 30" style="enable-background:new 0 0 24 24;" xml:space="preserve"><g><rect x="15.39" y="7.297" style="" width="1.695" height="0.598" fill="none"/><rect x="15.29" y="8.692" style="" width="1.695" height="0.897" fill="none"/><path style="" d="M6.698,7.196L6.182,8.156l0.226,1.433L6.425,9.59h1.088h0.798h0.598h0.127   C9.029,9.546,9.021,9.5,9.014,9.455c-0.09-1.24-1.025-2.174-2.227-2.259H6.698z" fill="none"/><polygon style="" points="5.61,7.746 5.905,7.197 5.327,7.197 5.32,7.197 5.316,7.197 4.834,7.197 5.129,7.746  " fill="none"/><path style="" d="M14.592,6.898c0-0.199,0.199-0.399,0.399-0.399h2.393c0.199,0,0.399,0.199,0.399,0.399v0.997h2.991   V2.411h-9.173v5.484h2.991V6.898z" fill="none"/><polygon style="" points="5.52,8.443 5.235,8.443 5.121,9.53 5.696,9.557  " fill="none"/><path style="" d="M8.909,10.388H6.416c-0.005,0-0.01-0.001-0.015-0.001H0.833v1.196h22.235v-1.196H8.971   C8.949,10.388,8.931,10.388,8.909,10.388z" fill="none"/><rect x="1.83" y="12.282" style="" width="20.141" height="9.372" fill="none"/><path style="" d="M4.422,9.499l0.14-1.333L4.041,7.197l-0.118,0c-0.207,0-0.541,0.068-0.87,0.178   C2.239,7.749,1.733,8.548,1.72,9.49h2.503L4.422,9.499z" fill="none"/><path style="" d="M5.32,6.399c0.444,0,0.75-0.091,1.05-0.315C6.79,5.738,7.056,5.199,7.1,4.606   C7.147,3.965,6.936,3.336,6.52,2.879C6.184,2.542,5.73,2.347,5.276,2.347c-0.029,0-0.058,0.001-0.088,0.003   C4.739,2.375,4.33,2.591,4.036,2.959C3.374,3.705,3.337,4.882,3.939,5.655C4.316,6.126,4.821,6.399,5.32,6.399z" fill="none"/><path d="M23.466,9.59h-5.683V8.692h3.39c0.199,0,0.399-0.199,0.399-0.399V2.112c0-0.199-0.199-0.399-0.399-0.399h-9.971   c-0.199,0-0.399,0.199-0.399,0.399v6.182c0,0.199,0.199,0.399,0.399,0.399h3.39V9.59h-4.487H9.841   C9.832,9.518,9.819,9.443,9.805,9.362C9.699,7.864,8.598,6.691,7.123,6.448C7.561,5.976,7.844,5.35,7.895,4.665   C7.959,3.807,7.672,2.96,7.097,2.328C6.566,1.796,5.854,1.502,5.144,1.554C4.465,1.592,3.851,1.913,3.426,2.445   C2.53,3.453,2.479,5.079,3.313,6.15c0.083,0.104,0.179,0.188,0.271,0.277C3.258,6.475,2.936,6.575,2.761,6.635   c-1.164,0.529-1.86,1.686-1.83,2.955H0.434c-0.199,0-0.399,0.199-0.399,0.399v1.994c0,0.199,0.199,0.399,0.399,0.399h0.698v9.672   c0,0.199,0.199,0.399,0.399,0.399h20.938c0.199,0,0.399-0.199,0.399-0.399v-9.672h0.698c0.199,0,0.399-0.199,0.399-0.399V9.989   C23.865,9.789,23.666,9.59,23.466,9.59z M11.601,7.895V2.411h9.173v5.484h-2.991V6.898c0-0.199-0.199-0.399-0.399-0.399h-2.393   c-0.199,0-0.399,0.199-0.399,0.399v0.997H11.601z M15.39,7.895V7.297h1.695v0.598H15.39z M16.985,8.692V9.59H15.29V8.692H16.985z    M9.014,9.455C9.021,9.5,9.029,9.546,9.036,9.59H8.909H8.311H7.513H6.425L6.408,9.589L6.182,8.156l0.516-0.959h0.089   C7.989,7.281,8.924,8.216,9.014,9.455z M5.316,7.197c0.001,0,0.002,0,0.004,0c0.003,0,0.005,0,0.007,0l0.578,0L5.61,7.746h-0.48   L4.834,7.197L5.316,7.197z M5.235,8.443H5.52l0.176,1.114L5.121,9.53L5.235,8.443z M4.036,2.959C4.33,2.591,4.739,2.375,5.188,2.35   c0.029-0.002,0.058-0.003,0.088-0.003c0.454,0,0.907,0.195,1.244,0.532C6.936,3.336,7.147,3.965,7.1,4.606   C7.056,5.199,6.79,5.738,6.37,6.085c-0.3,0.224-0.606,0.315-1.05,0.315c-0.499,0-1.003-0.273-1.381-0.744   C3.337,4.882,3.374,3.705,4.036,2.959z M3.053,7.376c0.33-0.11,0.663-0.178,0.87-0.178l0.118,0l0.521,0.968l-0.14,1.333L4.223,9.49   H1.72C1.733,8.548,2.239,7.749,3.053,7.376z M21.971,21.654H1.83v-9.372h20.141V21.654z M23.067,11.584H0.833v-1.196h5.569   c0.005,0,0.01,0.001,0.015,0.001h2.493c0.023,0,0.04-0.001,0.062-0.001h14.097V11.584z"/></g><text x="0" y="39" fill="#000000" font-size="5px" font-weight="bold" font-family="'Helvetica Neue', Helvetica, Arial-Unicode, Arial, Sans-serif">Created by myiconfinder</text><text x="0" y="44" fill="#000000" font-size="5px" font-weight="bold" font-family="'Helvetica Neue', Helvetica, Arial-Unicode, Arial, Sans-serif">from the Noun Project</text></svg>