<svg xmlns="http://www.w3.org/2000/svg" xmlns:xlink="http://www.w3.org/1999/xlink" version="1.1" x="0px" y="0px" viewBox="0 0 91 113.75" enable-background="new 0 0 91 91" xml:space="preserve"><g><g><path d="M90.395,32.094c-1.637-5.396-9.191-8.16-21.254-7.836c-0.65-0.524-1.32-1.031-2.014-1.51    c-0.299-0.208-0.639-0.313-0.979-0.343c1.635-3.313,2.918-6.597,2.918-8.754c0-6.282-5.111-11.393-11.396-11.393    c-6.283,0-11.396,5.111-11.396,11.393c0,0.814,0.188,1.791,0.502,2.866c-15.528,0.128-28.98,10.424-33.447,24.889    c-0.115,0.047-0.228,0.104-0.335,0.173C3.427,47.81-0.972,54.105,0.604,59.305c1.307,4.314,6.404,6.946,14.576,7.662    c5.311,11.135,16.303,19.184,29.462,20.087c0.83,0.059,1.654,0.087,2.477,0.087c8.521,0,16.662-3.039,23.148-8.691    c7.115-6.195,11.387-14.791,12.033-24.203c0.17-2.456,0.066-4.897-0.273-7.294C88.777,41.685,91.732,36.508,90.395,32.094z     M57.67,6.312c4.049,0,7.342,3.292,7.342,7.339c0,2.823-3.998,10.166-7.342,15.539c-3.344-5.373-7.344-12.716-7.344-15.539    C50.326,9.604,53.621,6.312,57.67,6.312z M4.484,58.129c-0.818-2.702,2.044-6.756,7.579-10.945    c-0.096,0.732-0.179,1.469-0.23,2.214c-0.318,4.636,0.285,9.123,1.641,13.292C8.436,61.979,5.169,60.393,4.484,58.129z     M78.256,53.97c-0.572,8.329-4.354,15.938-10.652,21.423c-6.297,5.486-14.357,8.19-22.684,7.617    c-10.867-0.747-20.068-6.999-25.07-15.839c0.042,0,0.081,0.002,0.123,0.002c0.807,0,1.637-0.016,2.489-0.046    c1.881-0.067,3.886-0.213,5.958-0.432c1.114-0.116,1.921-1.116,1.803-2.229c-0.117-1.114-1.112-1.927-2.229-1.802    c-1.978,0.207-3.888,0.347-5.677,0.411c-1.552,0.053-3.019,0.045-4.41-0.008c-1.603-4.139-2.353-8.681-2.028-13.392    c1.163-16.902,15.639-29.773,32.454-29.083c2.643,5.852,6.967,12.443,7.648,13.473c0.375,0.565,1.01,0.905,1.689,0.905    s1.313-0.339,1.689-0.905c0.484-0.732,2.809-4.274,5.061-8.362c0.117,0.14,0.246,0.271,0.402,0.379    c6.584,4.551,11.092,11.461,12.77,19.109c-0.805,0.568-1.646,1.135-2.543,1.701c-0.584,0.37-1.186,0.735-1.803,1.104    c-0.963,0.572-1.277,1.815-0.705,2.778c0.379,0.638,1.053,0.99,1.744,0.99c0.352,0,0.709-0.093,1.033-0.285    c0.652-0.386,1.285-0.772,1.898-1.159c0.354-0.225,0.688-0.449,1.027-0.673C78.348,51.077,78.357,52.52,78.256,53.97z     M81.094,42.473c-1.443-5.217-4.072-10.063-7.678-14.129c7.285,0.337,12.254,2.14,13.098,4.926    C87.225,35.612,85.207,38.925,81.094,42.473z"/><path d="M68.457,49.661l-8.066-1.031c-0.359-0.049-0.723,0.006-1.055,0.147l-4.244,1.821l-2.037-4.96    c-0.205-0.5-0.602-0.897-1.102-1.105c-0.496-0.206-1.059-0.206-1.559,0.004l-4.667,1.959c-0.741,0.311-1.228,1.029-1.243,1.832    l-0.123,6.874l-5.138,2.206l-5.428-2.204c-0.5-0.203-1.056-0.197-1.552,0.012l-2.176,0.918c-0.556,0.235-0.98,0.709-1.154,1.288    c-0.171,0.58-0.077,1.208,0.26,1.71l6.68,9.95c0.387,0.575,1.026,0.897,1.684,0.897c0.264,0,0.53-0.053,0.784-0.158l8.669-3.641    l2.244,5.347c0.211,0.496,0.605,0.889,1.104,1.092c0.248,0.101,0.508,0.149,0.768,0.149c0.266,0,0.533-0.053,0.785-0.156    l4.666-1.961c0.752-0.317,1.24-1.053,1.24-1.869V61.65l9.463-3.894c2.664-1.12,3.924-4.202,2.807-6.868    C69.789,50.222,69.176,49.752,68.457,49.661z M48.516,49.724l1.564-0.658l1.283,3.132l-2.916,1.252L48.516,49.724z M65.703,54.015    l-8.582,3.529c-0.357-0.322-0.826-0.524-1.35-0.524c-1.119,0-2.025,0.907-2.025,2.027v8.388l-1.555,0.654L49.4,61.445    c-0.436-1.033-1.625-1.519-2.654-1.085c-0.831,0.35-1.298,1.188-1.225,2.04l-7.23,3.036l-3.72-5.541l3.912,1.587    c0.503,0.206,1.063,0.198,1.561-0.015l20.381-8.746l5.861,0.75C66.166,53.709,65.965,53.905,65.703,54.015z"/><path d="M61.383,13.557c0-2.047-1.664-3.712-3.713-3.712c-2.047,0-3.711,1.665-3.711,3.712c0,2.048,1.664,3.712,3.711,3.712    C59.719,17.27,61.383,15.605,61.383,13.557z M57.33,13.557c0-0.188,0.152-0.341,0.34-0.341c0.189,0,0.342,0.153,0.342,0.341    s-0.152,0.341-0.342,0.341C57.482,13.898,57.33,13.746,57.33,13.557z"/></g></g></svg>