<svg xmlns="http://www.w3.org/2000/svg" xmlns:xlink="http://www.w3.org/1999/xlink" version="1.1" x="0px" y="0px" viewBox="0 0 64 80" enable-background="new 0 0 64 64" xml:space="preserve"><g><path d="M60.634,41.586c-0.855-0.546-1.915-0.618-2.836-0.192c-0.038,0.018-11.827,7.358-11.827,7.358   c-0.539-0.47-1.235-0.74-1.97-0.74h-6.153c-0.722-2.308-3.91-3.999-7.847-3.999c-3.712,0-8.714,2.382-9.791,4.999h-2.394   c-0.414-1.161-1.514-1.999-2.816-1.999H3c-0.552,0-1,0.448-1,1v12.997c0,0.552,0.448,1,1,1h12c1.278,0,2.365-0.807,2.796-1.935   c0,0,25.179,1.935,25.204,1.935c0.245,0,0.481-0.089,0.665-0.253l17.271-15.379C61.612,45.805,62,44.968,62,44.079   C62,43.064,61.489,42.132,60.634,41.586z M4,49.011h8v10.997H4V49.011z M16,59.009c0,0.551-0.449,1-1,1h-1V49.011h1   c0.551,0,1,0.449,1,1V59.009z M59.625,44.866L42.652,59.979L18,58.083v-7.072h3c0.552,0,1-0.448,1-1c0-1.356,4.318-3.999,8-3.999   c3.536,0,6,1.581,6,2.999c0,0.552,0.448,1,1,1h7c0.364,0,0.701,0.202,0.88,0.527C44.957,50.683,45,50.85,45,51.011   c0,0.267-0.102,0.513-0.306,0.712c-0.181,0.186-0.428,0.288-0.694,0.288H32c-0.552,0-1,0.448-1,1s0.448,1,1,1h12   c0.811,0,1.565-0.317,2.108-0.874C46.683,52.576,47,51.821,47,51.011c0-0.17-0.034-0.338-0.063-0.505l11.748-7.318   c0.29-0.118,0.605-0.087,0.873,0.082C59.838,43.45,60,43.745,60,44.083C60,44.379,59.871,44.658,59.625,44.866z"/><path d="M3.366,22.43c0.855,0.546,1.915,0.618,2.836,0.192c0.038-0.018,11.827-7.358,11.827-7.358c0.539,0.47,1.235,0.74,1.97,0.74   h6.153c0.722,2.308,3.91,3.999,7.847,3.999c3.712,0,8.714-2.382,9.791-4.999h2.394c0.414,1.161,1.514,1.999,2.816,1.999h12   c0.552,0,1-0.448,1-1V3.008c0-0.552-0.448-1-1-1H49c-1.278,0-2.365,0.807-2.796,1.935c0,0-25.179-1.935-25.204-1.935   c-0.245,0-0.481,0.089-0.665,0.253L3.064,17.64C2.388,18.211,2,19.047,2,19.937C2,20.952,2.511,21.884,3.366,22.43z M60,15.004h-8   V4.007h8V15.004z M48,5.007c0-0.551,0.449-1,1-1h1v10.997h-1c-0.551,0-1-0.449-1-1V5.007z M4.375,19.15L21.348,4.037L46,5.933   v7.072h-3c-0.552,0-1,0.448-1,1c0,1.356-4.318,3.999-8,3.999c-3.536,0-6-1.581-6-2.999c0-0.552-0.448-1-1-1h-7   c-0.364,0-0.701-0.202-0.88-0.527C19.043,13.333,19,13.165,19,13.005c0-0.267,0.102-0.513,0.306-0.712   c0.181-0.186,0.428-0.288,0.694-0.288h12c0.552,0,1-0.448,1-1s-0.448-1-1-1H20c-0.811,0-1.565,0.317-2.108,0.874   C17.317,11.44,17,12.195,17,13.005c0,0.17,0.034,0.338,0.063,0.505L5.315,20.828c-0.29,0.118-0.605,0.087-0.873-0.082   C4.162,20.566,4,20.271,4,19.933C4,19.637,4.129,19.358,4.375,19.15z"/><path d="M49,22.003H15c-1.654,0-3,1.345-3,2.999v13.996c0,1.654,1.346,2.999,3,2.999h34c1.654,0,3-1.345,3-2.999V25.002   C52,23.348,50.654,22.003,49,22.003z M14,25.002c0-0.551,0.449-1,1-1h1.874c-0.363,1.403-1.47,2.51-2.874,2.873V25.002z M15,39.998   c-0.551,0-1-0.449-1-1v-1.873c1.404,0.363,2.511,1.469,2.874,2.873H15z M50,38.998c0,0.551-0.449,1-1,1h-1.874   c0.363-1.403,1.47-2.51,2.874-2.873V38.998z M50,35.09c-2.507,0.423-4.485,2.403-4.909,4.908H18.909   c-0.424-2.505-2.402-4.485-4.909-4.908V28.91c2.507-0.423,4.486-2.402,4.91-4.908H45.09c0.423,2.506,2.403,4.485,4.91,4.908V35.09z    M50,26.875c-1.404-0.363-2.511-1.469-2.874-2.873H49c0.551,0,1,0.449,1,1V26.875z"/><path d="M31,30.001v1h2c1.103,0,2,0.897,2,1.999v1c0,1.103-0.897,1.999-2,1.999v1c0,0.552-0.448,1-1,1s-1-0.448-1-1v-1h-1   c-0.552,0-1-0.448-1-1c0-0.552,0.448-1,1-1h3v-1h-2c-1.103,0-2-0.897-2-1.999v-1c0-1.103,0.897-1.999,2-1.999v-1   c0-0.552,0.448-1,1-1s1,0.448,1,1v1h1c0.552,0,1,0.448,1,1s-0.448,1-1,1H31z"/><path d="M22,29.001c-1.654,0-3,1.345-3,2.999c0,1.654,1.346,2.999,3,2.999s3-1.345,3-2.999C25,30.346,23.654,29.001,22,29.001z    M22,33c-0.551,0-1-0.449-1-1c0-0.551,0.449-1,1-1s1,0.449,1,1C23,32.551,22.551,33,22,33z"/><path d="M42,29.001c-1.654,0-3,1.345-3,2.999c0,1.654,1.346,2.999,3,2.999s3-1.345,3-2.999C45,30.346,43.654,29.001,42,29.001z    M42,33c-0.551,0-1-0.449-1-1c0-0.551,0.449-1,1-1s1,0.449,1,1C43,32.551,42.551,33,42,33z"/></g></svg>